<svg xmlns="http://www.w3.org/2000/svg" xmlns:xlink="http://www.w3.org/1999/xlink" viewBox="0 0 1758 1758">
	<path fill="#010101" d="M1743,869.5c-31.6-14.6-63.2-28.9-95-43c-119.1-51.6-238.4-102.6-358-153c-47-20-93.3-41.3-139-64 c-6.1-8.6-11.2-17.8-15.5-27.5c-57.2-128.3-112.9-257.3-167-387c-27.7-65-56.7-129.3-87-193c-0.8-1.3-2-2-3.5-2 c-3.7,5.3-6.8,11-9.5,17c-14.3,30.9-28.3,61.9-42,93c-51.6,119.1-102.6,238.4-153,358c-20,47-41.3,93.3-64,139 c-1.6,1.9-3.4,3.4-5.5,4.5c-20.2,9.9-40.5,19.6-61,29c-147.1,63.9-294.4,127.2-442,190c-32.7,14.2-65,29.2-97,45 c-5.3,2.3-5.3,4.7,0,7c32,15.8,64.3,30.8,97,45c148.1,63.5,296.1,127.1,444,191c19.8,9.1,39.5,18.4,59,28c2.1,1.1,3.9,2.6,5.5,4.5 c21.4,43.5,41.7,87.5,61,132c53.3,124.7,106.7,249.3,160,374c14.2,32.7,29.2,65,45,97c2.3,5.3,4.7,5.3,7,0c15.8-32,30.8-64.3,45-97 c60.3-141.5,120.9-282.8,182-424c9-19.7,18-39.3,27-59c3.9-9.1,8.8-17.6,14.5-25.5c45.7-22.7,92-44,139-64 c122.7-51.6,245-103.9,367-157c33.4-14.5,66.4-29.8,99-46c0.9-0.7,1.5-1.5,2-2.5C1753.4,875.3,1748.4,872.2,1743,869.5z M991.5,927 c-21.9,47.1-58.9,71.8-111,74c-46.7-2.3-82.7-23-108-62c-20.8-37.8-21.8-76.1-3-115c21.5-37.5,53.7-59.9,96.5-67 c51.8-3.7,91.3,16.3,118.5,60C1003.4,852.6,1005.7,889.3,991.5,927z"/>
	<path fill="#808080" d="M868,197c0,162.3,0,324.7,0,487c-9.5-0.3-18.8,0-28,1c-15.7,2.5-30.7,7.4-45,14.5 c-17.1,9.3-34.3,18.5-51.5,27.5C706,690.5,668.9,653.7,632,616.5C685.3,491.1,738.5,365.6,791.5,240c23.9-56.7,48.5-113,74-169 c0.3,0.7,0.7,1.3,1,2C867.8,114.3,868.3,155.7,868,197z"/>
	<path fill="#686868" d="M916,685c-8.5-1-17.2-1.3-26-1c0-151.7,0-303.3,0-455c-0.3-51.7,0.5-103.4,2.5-155c0.3-1.8,1-2.1,2-1 C971.8,254.1,1049,435.3,1126,616.5c-36.9,37.2-74,74-111.5,110.5c-19.1-10.8-38.6-21-58.5-30.5C943.2,690.8,929.8,687,916,685z" />
	<path fill="#686868" d="M685,840c-1,9.2-1.3,18.5-1,28c-59.7,0-119.3,0-179,0c-104,0.3-208-0.2-312-1.5c-30.7-0.5-61.4-1.9-92-4 c-6-0.2-11.7-1.5-17-4C259.4,781.9,435.6,707.1,612.5,634c2.4,0.8,4.6,1.9,6.5,3.5c7.2,5.8,14.2,11.8,21,18 c28.8,28.8,57.7,57.7,86.5,86.5c0.7,1,0.7,2,0,3c-14.2,24.1-26.5,49.1-37,75C687.4,826.5,685.9,833.2,685,840z"/>
	<path fill="#808080" d="M224,890c153.3,0,306.7,0,460,0c-0.3,8.8,0,17.5,1,26c2,13.9,5.8,27.2,11.5,40c10,19.6,20.2,39.1,30.5,58.5 c-36.5,37.5-73.3,74.6-110.5,111.5C435.3,1049,254.1,971.8,73,894.5c-1.1-1-0.8-1.7,1-2C124,890.5,174,889.7,224,890z"/>
	<path fill="#808080" d="M1481,868c-135.7,0-271.3,0-407,0c0.3-9.5,0-18.8-1-28c-2.5-15.7-7.4-30.7-14.5-45 c-9.3-17.1-18.5-34.3-27.5-51.5c36.2-37.5,73-74.4,110.5-110.5c181.7,75.6,362.8,152.4,543.5,230.5c0.3,0.3,0.7,0.7,1,1 c-1,0.3-2,0.7-3,1C1615.7,867.4,1548.3,868.2,1481,868z"/>
	<path fill="#686868" d="M1179,889c142.7-0.3,285.3,0.2,428,1.5c26.4,0.2,52.7,1.2,79,3c-33.7,15.5-67.7,30.5-102,45 c-147.8,61.8-295.3,124.3-442.5,187.5c-37.2-36.9-74-74-110.5-111.5c10.6-20.3,20.7-40.8,30.5-61.5c7-16.3,11.3-33.3,13-51 c3.3-3.8,7.5-6.1,12.5-7c4.9-1.2,9.9-2.1,15-2.5C1127.8,890.8,1153.5,889.7,1179,889z"/>
	<path fill="#686868" d="M840,1073c9.2,1,18.5,1.3,28,1c0,144,0,288,0,432c0.3,59-0.6,118-2.5,177c-0.3,1-0.7,2-1,3 c-21.5-47.7-42.5-95.7-63-144c-56.4-133.6-112.9-267.1-169.5-400.5c36.1-36.7,72.7-72.7,110-108c1.3-0.7,2.7-0.7,4,0 c19.1,10.2,38.4,19.9,58,29C815.6,1067.3,827.6,1070.8,840,1073z"/>
	<path fill="#808080" d="M890,1507c0-144.3,0-288.7,0-433c8.2,0.3,16.2,0,24-1c13.1-1.9,25.7-5.4,38-10.5c18.2-9.6,36.5-18.9,55-28 c2.2-1.2,4.6-1.5,7-1c10.4,8.2,20.4,16.9,30,26c27.3,27.3,54.7,54.7,82,82c-76.5,181.4-153.6,362.6-231.5,543.5 c-0.3,0.3-0.7,0.7-1,1c-0.3-1.3-0.7-2.7-1-4C890.6,1623.7,889.7,1565.3,890,1507z"/>
	<path fill="#7F7F7F" d="M1048.5,828c-15.8-52.5-48.7-90-98.5-112.5c-27.8-10.3-56.4-15.8-86-16.5c-13.3,4.4-27,7.9-41,10.5 c-8.7,2.8-17,6.5-25,11c-23.2,14.2-43.7,31.7-61.5,52.5c-11.2,12.9-19.6,27.6-25,44c-7.1,26.9-9.8,54.2-8,82c0.6,21.6,6,41.9,16,61 c38.6,66.4,96.4,97.9,173.5,94.5c49.3-3.6,90.1-23.7,122.5-60.5C1052.9,944.1,1063.9,888.8,1048.5,828z M1002.5,946 c-20,34.8-49.2,58.3-87.5,70.5c-69.1,12.4-122.3-11.1-159.5-70.5c-33.1-67.3-21.6-125.8,34.5-175.5c23-19.2,49.3-30.7,79-34.5 c37.5-1.1,70.5,10.4,99,34.5c28.4,24.7,46.2,55.6,53.5,92.5C1024.2,892.7,1017.8,920.4,1002.5,946z"/>
</svg>
